<?xml version="1.0" encoding="UTF-8" standalone="no"?>
<svg
   xmlns:dc="http://purl.org/dc/elements/1.1/"
   xmlns:cc="http://creativecommons.org/ns#"
   xmlns:rdf="http://www.w3.org/1999/02/22-rdf-syntax-ns#"
   xmlns:svg="http://www.w3.org/2000/svg"
   xmlns="http://www.w3.org/2000/svg"
   xmlns:sodipodi="http://sodipodi.sourceforge.net/DTD/sodipodi-0.dtd"
   xmlns:inkscape="http://www.inkscape.org/namespaces/inkscape"
   inkscape:version="1.0 (4035a4fb49, 2020-05-01)"
   sodipodi:docname="numpy_logo.svg"
   id="svg25"
   version="1.1"
   viewBox="0 0 500 500">
  <metadata
     id="metadata29">
    <rdf:RDF>
      <cc:Work
         rdf:about="">
        <dc:format>image/svg+xml</dc:format>
        <dc:type
           rdf:resource="http://purl.org/dc/dcmitype/StillImage" />
      </cc:Work>
    </rdf:RDF>
  </metadata>
  <sodipodi:namedview
     inkscape:current-layer="svg25"
     inkscape:window-maximized="1"
     inkscape:window-y="-8"
     inkscape:window-x="1672"
     inkscape:cy="250"
     inkscape:cx="250"
     inkscape:zoom="1.7"
     showgrid="false"
     id="namedview27"
     inkscape:window-height="1017"
     inkscape:window-width="1920"
     inkscape:pageshadow="2"
     inkscape:pageopacity="0"
     guidetolerance="10"
     gridtolerance="10"
     objecttolerance="10"
     borderopacity="1"
     bordercolor="#666666"
     pagecolor="#ffffff" />
  <defs
     id="defs4">
    <style
       id="style2">.cls-1{fill:#4dabcf;}.cls-2{fill:#4d77cf;}</style>
    <filter
       height="1.0000093"
       y="-4.645528e-06"
       width="1.0000099"
       x="-4.9650985e-06"
       id="filter858"
       style="color-interpolation-filters:sRGB"
       inkscape:collect="always">
      <feGaussianBlur
         id="feGaussianBlur860"
         stdDeviation="0.00080116001"
         inkscape:collect="always" />
    </filter>
  </defs>
  <g
     inkscape:export-ydpi="96"
     inkscape:export-xdpi="96"
     style="filter:url(#filter858)"
     data-name="Layer 1"
     id="Layer_1">
    <polygon
       id="polygon6"
       points="220.93 127.14 151.77 92.23 75.87 130.11 146.9 165.78 220.93 127.14"
       class="cls-1" />
    <polygon
       id="polygon8"
       points="252.63 143.14 325.14 179.74 249.91 217.52 178.77 181.79 252.63 143.14"
       class="cls-1" />
    <polygon
       id="polygon10"
       points="349.47 92.76 423.96 130.11 357.34 163.57 284.68 126.92 349.47 92.76"
       class="cls-1" />
    <polygon
       id="polygon12"
       points="317.41 76.67 250.35 43.05 184.01 76.15 253.11 111 317.41 76.67"
       class="cls-1" />
    <polygon
       id="polygon14"
       points="264.98 365.44 264.98 456.95 346.22 416.41 346.13 324.86 264.98 365.44"
       class="cls-1" />
    <polygon
       id="polygon16"
       points="346.1 292.91 346.01 202.32 264.98 242.6 264.98 333.22 346.1 292.91"
       class="cls-1" />
    <polygon
       id="polygon18"
       points="443.63 275.93 443.63 367.8 374.34 402.38 374.29 310.93 443.63 275.93"
       class="cls-1" />
    <polygon
       id="polygon20"
       points="443.63 243.81 443.63 153.79 374.21 188.3 374.27 279.07 443.63 243.81"
       class="cls-1" />
    <path
       id="path22"
       d="M236.3,242.6l-54.72-27.51V334s-66.92-142.39-73.12-155.18c-.8-1.65-4.09-3.46-4.93-3.9-12-6.3-47.16-24.11-47.16-24.11V360.89l48.64,26V277.08s66.21,127.23,66.88,128.62,7.32,14.8,14.42,19.51c9.46,6.26,50,30.64,50,30.64Z"
       class="cls-2" />
  </g>
</svg>
